<?xml version="1.0" standalone="no"?>
<!DOCTYPE svg PUBLIC "-//W3C//DTD SVG 1.1//EN" "http://www.w3.org/Graphics/SVG/1.1/DTD/svg11.dtd" >
<svg xmlns="http://www.w3.org/2000/svg">
<metadata>
Created by FontForge 20120731 at Fri Apr 22 16:28:32 2016
 By admin
</metadata>
<defs>
<font id="iconfont" horiz-adv-x="1024" >
  <font-face 
    font-family="iconfont"
    font-weight="500"
    font-stretch="normal"
    units-per-em="1024"
    panose-1="2 0 6 3 0 0 0 0 0 0"
    ascent="896"
    descent="-128"
    x-height="792"
    bbox="-4 -224 1045 900"
    underline-thickness="50"
    underline-position="-100"
    unicode-range="U+0078-E66F"
  />
<missing-glyph horiz-adv-x="374" 
d="M34 0v682h272v-682h-272zM68 34h204v614h-204v-614z" />
    <glyph glyph-name=".notdef" horiz-adv-x="374" 
d="M34 0v682h272v-682h-272zM68 34h204v614h-204v-614z" />
    <glyph glyph-name=".null" horiz-adv-x="0" 
 />
    <glyph glyph-name="nonmarkingreturn" horiz-adv-x="341" 
 />
    <glyph glyph-name="x" unicode="x" horiz-adv-x="1001" 
d="M281 543q-27 -1 -53 -1h-83q-18 0 -36.5 -6t-32.5 -18.5t-23 -32t-9 -45.5v-76h912v41q0 16 -0.5 30t-0.5 18q0 13 -5 29t-17 29.5t-31.5 22.5t-49.5 9h-133v-97h-438v97zM955 310v-52q0 -23 0.5 -52t0.5 -58t-10.5 -47.5t-26 -30t-33 -16t-31.5 -4.5q-14 -1 -29.5 -0.5
t-29.5 0.5h-32l-45 128h-439l-44 -128h-29h-34q-20 0 -45 1q-25 0 -41 9.5t-25.5 23t-13.5 29.5t-4 30v167h911zM163 247q-12 0 -21 -8.5t-9 -21.5t9 -21.5t21 -8.5q13 0 22 8.5t9 21.5t-9 21.5t-22 8.5zM316 123q-8 -26 -14 -48q-5 -19 -10.5 -37t-7.5 -25t-3 -15t1 -14.5
t9.5 -10.5t21.5 -4h37h67h81h80h64h36q23 0 34 12t2 38q-5 13 -9.5 30.5t-9.5 34.5q-5 19 -11 39h-368zM336 498v228q0 11 2.5 23t10 21.5t20.5 15.5t34 6h188q31 0 51.5 -14.5t20.5 -52.5v-227h-327z" />
    <glyph glyph-name="uniE600" unicode="&#xe600;" 
d="M475 337h-475v-74h475v-475h74v475h475v74h-475v475h-74v-475z" />
    <glyph glyph-name="uniE601" unicode="&#xe601;" 
d="M645 493v-619h-266v619h-268l401 401l401 -401h-268z" />
    <glyph glyph-name="uniE602" unicode="&#xe602;" 
d="M129 -88v927h519v-237h247v-690h-766zM802 512h-581v-60h581v60zM802 363h-581v-60h581v60zM802 214h-581v-60h581v60zM802 65h-581v-60h581v60zM678 839h29l188 -174v-33h-217v207z" />
    <glyph glyph-name="uniE603" unicode="&#xe603;" 
d="M1022 363l-1 262q0 3 -0.5 8t-5 19t-11.5 24t-21.5 18.5t-33.5 8.5l-729 -1l-16 39q0 5 -1.5 12.5t-8.5 27.5t-16.5 35t-27.5 27.5t-40 12.5q-4 0 -10.5 -0.5t-22.5 -7t-28.5 -17t-23 -34t-10.5 -54.5h80q97 -552 97 -568q0 -20 11.5 -48t26.5 -28h716q15 0 26.5 19.5
t11.5 37t-11.5 37t-26.5 19.5h-664l-19 76l685 3q0 -1 7.5 0t18.5 4.5t22 10.5t18.5 21.5t7.5 35.5zM339 401q0 -16 -11.5 -27t-26.5 -11h-1q-16 0 -27 11t-11 27v38q0 15 11 26t27 11h1q15 0 26.5 -11t11.5 -26v-38zM339 552q0 -16 -11.5 -27t-26.5 -11h-38q-16 0 -27 11
t-11 27v38q0 15 11 26t27 11h38q15 0 26.5 -11t11.5 -26v-38zM491 401q0 -16 -11.5 -27t-26.5 -11h-38q-16 0 -27 11t-11 27v38q0 15 11 26t27 11h38q15 0 26.5 -11t11.5 -26v-38zM491 552q0 -16 -11.5 -27t-26.5 -11h-38q-16 0 -27 11t-11 27v38q0 15 11 26t27 11h38
q15 0 26.5 -11t11.5 -26v-38zM642 401q0 -16 -11 -27t-27 -11h-38q-15 0 -26.5 11t-11.5 27v38q0 15 11.5 26t26.5 11h38q16 0 27 -11t11 -26v-38zM642 552q0 -16 -11 -27t-27 -11h-38q-15 0 -26.5 11t-11.5 27v38q0 15 11.5 26t26.5 11h38q16 0 27 -11t11 -26v-38zM794 401
q0 -16 -11 -27t-27 -11h-38q-16 0 -27 11t-11 27v38q0 15 11 26t27 11h38q16 0 27 -11t11 -26v-38zM794 552q0 -16 -11 -27t-27 -11h-38q-16 0 -27 11t-11 27v38q0 15 11 26t27 11h38q16 0 27 -11t11 -26v-38zM946 401q0 -16 -11 -27t-27 -11h-38q-16 0 -27 11t-11 27v38
q0 15 11 26t27 11h38q16 0 27 -11t11 -26v-38zM946 552q0 -16 -11 -27t-27 -11h-38q-16 0 -27 11t-11 27v38q0 15 11 26t27 11h38q16 0 27 -11t11 -26v-38zM756 62q-32 0 -54.5 -22t-22.5 -54t22.5 -54t54.5 -22t54.5 22t22.5 54t-22.5 54t-54.5 22zM336 62q-32 0 -53 -21.5
t-21 -53.5t21.5 -54t52.5 -22q32 0 54.5 22.5t22.5 53.5q0 32 -22 53.5t-55 21.5z" />
    <glyph glyph-name="uniE604" unicode="&#xe604;" 
d="M910 778h-33v-65h-98v65h-524v-65h-98v65h-33q-14 0 -23.5 -9.5t-9.5 -23.5v-721q0 -13 9.5 -23t23.5 -10h33v33h98v-33h524v33h99v-33h32q14 0 23.5 10t9.5 23v721q0 14 -9.5 23.5t-23.5 9.5zM255 123h-99v98h99v-98zM255 319h-99v99h99v-99zM255 516h-99v98h99v-98z
M667 363l-213 -124q-5 -3 -11 -3q-7 0 -13 4q-11 7 -11 21v248q0 14 11 21q12 7 24 1l213 -125q14 -6 14 -21t-14 -22zM877 123h-98v98h98v-98zM877 319h-98v99h98v-99zM877 516h-98v98h98v-98z" />
    <glyph glyph-name="uniE605" unicode="&#xe605;" 
d="M645 275v619h-266v-619h-268l401 -401l401 401h-268z" />
    <glyph glyph-name="uniE606" unicode="&#xe606;" 
d="M879 539l-53 53l-315 -313l-313 315l-52 -52l365 -368zM-4 900v-1032h1032v1032h-1032zM953 -55h-883v884h883v-884z" />
    <glyph glyph-name="uniE607" unicode="&#xe607;" 
d="M510 594l-365 -368l53 -52l313 316l315 -314l53 53zM-4 900v-1032h1032v1032h-1032zM953 -55h-883v884h883v-884z" />
    <glyph glyph-name="uniE608" unicode="&#xe608;" 
d="M377 732l-86 -86l280 -259l-270 -267l81 -83l351 346z" />
    <glyph glyph-name="uniE609" unicode="&#xe609;" 
d="M861 536l-416 -416q-7 -7 -17.5 -7t-17.5 7l-247 246q-7 8 -7 18t7 18l78 77q7 7 17.5 7t17.5 -7l152 -151l320 320q7 7 17.5 7t17.5 -7l78 -77q7 -8 7 -18t-7 -17z" />
    <glyph glyph-name="uniE60A" unicode="&#xe60a;" 
d="M3 211v144q0 24 16.5 40t39.5 16h904q23 0 39.5 -16t16.5 -40v-144h-1016zM3 181v-167h74v-44h73v44h721v-44h73v44h75v167h-1016zM511 804q-239 0 -452 -106v-263h77v68q0 23 16.5 39t39.5 16h227q23 0 39.5 -16t16.5 -39v-68h72v68q0 23 16.5 39t39.5 16h227
q23 0 39.5 -16t16.5 -39v-68h77v263q-213 106 -452 106z" />
    <glyph glyph-name="uniE60B" unicode="&#xe60b;" 
d="M512 795q-101 0 -187.5 -51.5t-136.5 -139.5t-50 -191q0 -59 38.5 -146.5t93.5 -170t110 -156.5t94 -119l38 -45q15 17 40.5 47t89.5 115t113.5 161t90 165.5t40.5 148.5q0 103 -50 191t-136.5 139.5t-187.5 51.5zM512 253q-77 0 -132 56t-55 135t55 135t132 56t132 -56
t55 -135t-55 -135t-132 -56zM512 253z" />
    <glyph glyph-name="uniE60C" unicode="&#xe60c;" 
d="M935 -124v72h-52v400h52v65h40h1q11 0 18 7t7 16q0 14 -14 20l-457 327q-15 11 -30 0l-460 -330q-14 -10 -8.5 -25t23.5 -15h42v-65h51v-400h-51v-72h-73v-72h983v72h-72zM259 348h97v-400h-97v400zM467 348h97v-400h-97v400zM675 348h97v-400h-97v400z" />
    <glyph glyph-name="uniE60D" unicode="&#xe60d;" 
d="M907 591l-391 -408l-390 408l-112 -116l502 -526l503 526z" />
    <glyph glyph-name="uniE60E" unicode="&#xe60e;" 
d="M439 23zM981 385h-384v384h-170v-384h-384v-170h384v-384h170v384h384v170z" />
    <glyph glyph-name="uniE60F" unicode="&#xe60f;" 
d="M280 97q39 -26 96 -26q66 0 101.5 35t35.5 81q0 29 -14 52.5t-39 36.5q41 29 41 78q0 39 -29 67t-83 28q-57 0 -97 -29q-9 -6 -5 -17l12 -33q3 -7 10 -9t13 2q27 20 58 20q45 0 45 -36q0 -21 -19 -31.5t-42 -10.5h-25q-6 0 -10.5 -4.5t-4.5 -10.5v-35q0 -6 4.5 -10
t10.5 -4h25q8 0 17 -1.5t23 -6t23 -16.5t10 -29q0 -20 -13 -34q-16 -16 -49 -16q-36 0 -67 18q-6 4 -12.5 1.5t-8.5 -8.5l-13 -35q-4 -11 6 -17zM568 351q1 -7 8 -10t13 0l38 21v-270q0 -6 4 -10.5t11 -4.5h44q6 0 10 4.5t4 10.5v336q0 7 -4 11t-10 4h-39q-4 0 -7 -1
l-74 -40q-10 -5 -7 -17zM827 815h-75v-68q0 -20 -14 -33.5t-33.5 -13.5t-33 13.5t-13.5 33.5v68h-291v-68q0 -20 -14 -33.5t-33 -13.5t-33 13.5t-14 33.5v68h-75q-38 0 -64.5 -27t-26.5 -64v-738q0 -38 26.5 -65t64.5 -27h629q37 0 64 27t27 65v738q0 37 -27 64t-64 27z
M858 -14q0 -14 -9 -23t-22 -9h-629q-13 0 -22.5 9t-9.5 23v601h692v-601zM320 729q7 0 12 5.5t5 12.5v108q0 7 -5 12.5t-12 5.5t-12 -5.5t-5 -12.5v-108q0 -7 5 -12.5t12 -5.5zM705 729q7 0 12 5.5t5 12.5v108q0 7 -5 12.5t-12 5.5t-12.5 -5.5t-5.5 -12.5v-108
q0 -7 5.5 -12.5t12.5 -5.5z" />
    <glyph glyph-name="uniE610" unicode="&#xe610;" 
d="M101 152h114q18 0 31 -13t13 -31v-47h31v47q0 18 13 31t32 13h113q18 0 31 -13t13 -31v-47h35v47q0 18 13 31t31 13h114q18 0 31 -13t13 -31v-47h34v47q0 18 13 31t31 13h114q18 0 31 -13t13 -31v-47h25v-25h-25v-62h-202v62h-34v-62h-202v62h-35v-62h-202v62h-31v-62
h-202v62h-27v25h27v47q0 18 13 31t31 13zM318 717q82 -70 189 -66.5t184 75.5q-46 38 -74 116h-213q-31 -87 -86 -125zM382 730q118 -33 244 0q-45 -25 -80.5 -34t-76 -1.5t-87.5 35.5zM428 816q73 -20 152 0q-42 -24 -73.5 -25t-78.5 25zM411 773q90 -24 187 0
q-35 -19 -62.5 -25.5t-58.5 -1t-66 26.5zM963 289q-54 1 -121 1q-6 227 48 382q-100 3 -157 47.5t-89 122.5h319v-553zM910 697q-109 24 -158 125h-46q49 -110 204 -125zM62 289v553h318q-32 -78 -88.5 -122.5t-157.5 -47.5q55 -156 48 -382q-20 0 -60 -0.5t-60 -0.5z
M114 697q110 24 159 125h46q-49 -110 -205 -125zM865 239q23 0 39 -16.5t16 -39.5q0 -10 -3 -19h-103q-4 9 -4 19q0 23 16 39.5t39 16.5zM629 239q23 0 39 -16.5t16 -39.5q0 -10 -3 -19h-103q-4 9 -4 19q0 23 16 39.5t39 16.5zM393 239q23 0 39 -16.5t16 -39.5q0 -9 -4 -19
h-103q-3 9 -3 19q0 23 16 39.5t39 16.5zM159.5 239q22.5 0 39 -16.5t16.5 -39.5q0 -10 -4 -19h-103q-4 9 -4 19q0 23 16.5 39.5t39 16.5z" />
    <glyph glyph-name="uniE611" unicode="&#xe611;" 
d="M1018 796q-1 1 0.5 8.5t-7 16t-26.5 8.5h-600v-47h5q3 0 11 -3t14.5 -7.5t11.5 -14.5t5 -24q0 -2 -1 -5t-4.5 -11t-8 -14t-13.5 -11t-20 -5h-5q-3 0 -11 1.5t-14 5.5t-12 14t-7 25q1 23 13 35t24 13l12 1v47h-345q-15 0 -24 -9t-10 -18l-1 -9v-156h1013v159zM100 686
q-1 1 -5.5 0t-12 2t-14.5 6.5t-12 14t-5 24.5q0 15 5.5 25.5t11.5 15t15 6.5t11 2h6q24 1 35.5 -11.5t11.5 -24.5v-13v-5q0 -3 -2.5 -11t-7 -14.5t-14.5 -11.5t-23 -5zM241 686q-1 1 -5 0t-11 2t-13.5 6.5t-11.5 14t-5 24.5q1 24 13 36t23 13h11q25 0 37 -12.5t12 -24.5v-12
v-5q0 -4 -2 -12t-7 -14.5t-15.5 -11.5t-25.5 -4zM969 637v-646h-918v646h-46v-665q1 -1 -0.5 -7.5t7 -14.5t24.5 -8h950q2 1 9 -0.5t15 7t8 25.5v663h-49zM516 249l30 -29l-19 -20q-14 -14 4 -33l152 -151q1 -1 4 -2.5t11.5 -3.5t14.5 4l76 74q13 18 -4 34l-151 149
q-1 2 -4.5 3.5t-13 4t-16.5 -5.5l-20 -20l-32 31zM495 336l-162 160v50l-96 56l-48 -46l58 -92h51l160 -158zM233 66q0 3 1 7t7 11t18 7q2 0 6 -1t10.5 -7t7.5 -17q0 -2 -1 -6t-7 -10.5t-17 -7.5l-22 -21q4 -3 10 -7t23.5 -5t33.5 12l290 311q3 -3 9.5 -6.5t27.5 -9t42 -5.5
q6 0 17 0.5t38.5 10t48.5 26.5q3 3 9 8.5t18.5 23.5t20 37.5t8 49.5t-12.5 60l-104 -100l-87 87l103 99q-2 2 -7 4t-21.5 5.5t-33.5 3.5t-42.5 -7.5t-50.5 -22.5q-5 -4 -13 -11t-24.5 -30.5t-22.5 -48.5q-1 -3 -2 -8t-2 -20.5t0.5 -30.5t9 -35t20.5 -37l-326 -268
q-2 -2 -4.5 -6t-7.5 -17t2 -26zM233 66q0 -2 1 -6t7.5 -10.5t16.5 -7.5l-22 -21q-28 24 -30 37z" />
    <glyph glyph-name="uniE612" unicode="&#xe612;" horiz-adv-x="1026" 
d="M960 521q6 44 -25 102l-132 -141l-108 101l130 139q-57 25 -88 18q-100 -19 -162 -75.5t-62 -143.5q0 -70 42 -127l-10 10q-23 -21 -58 -52l-218 220l-19 85l-118 59l-52 -54l54 -119l89 -12l218 -221q-285 -258 -371 -341q-13 -13 9 -45.5t55 -54.5t46 -9q88 86 338 371
l76 -77l-10 -12q-6 -8 -14.5 -24t-5.5 -23q7 -20 35 -52.5t63 -64.5t68 -60.5t56 -47t23 -17.5l149 147q-7 9 -19.5 23.5t-46 53t-63 69t-63 59t-54.5 36.5q-9 3 -26.5 -8.5t-31.5 -24.5l-13 -13l-81 83l51 59l-8 8q60 -43 134 -43q89 0 150.5 63.5t72.5 155.5zM155 -90
q-13 0 -22 9.5t-9 22.5t9 22t22 9t22.5 -9t9.5 -22t-9.5 -22.5t-22.5 -9.5z" />
    <glyph glyph-name="uniE613" unicode="&#xe613;" 
d="M212 592q6 -25 14 -54t18 -59t23 -59t28 -55v-422l-268 -66v669zM292 628q0 6 -0.5 10.5t-0.5 10.5q0 48 18.5 89.5t50.5 73.5t75 50t92.5 18t92 -18t75 -50t51 -73.5t18.5 -89.5v-13q0 -7 -1 -13q-6 -57 -25 -109t-48 -100t-66.5 -92.5t-80.5 -85.5q-7 -7 -15.5 -7
t-16.5 7q-44 41 -81.5 86t-66 94.5t-47.5 102.5t-24 109zM527 747q-21 0 -39 -7.5t-31.5 -21t-21.5 -31.5t-8 -38.5t8 -38.5t21.5 -31.5t31.5 -21t39.5 -7.5t40 7.5t32 21t21.5 31.5t8 38.5t-8 38.5t-21.5 31.5t-32 21t-40.5 7.5zM361 278q31 -34 61 -62t53 -49
q28 -25 52 -44q13 11 29 25q14 11 32.5 29.5t41.5 40.5v-341l-269 66v335zM964 613v-670l-267 -66v410q6 6 12 13l12 14q22 23 40 55.5t32.5 69.5t25.5 74t20 69zM964 613z" />
    <glyph glyph-name="uniE614" unicode="&#xe614;" 
d="M101 267q70 15 140 -3.5t125 -71.5q26 -27 44.5 -60t28 -68.5t10 -72t-6.5 -70.5q-69 -15 -139 8t-124 77q-55 53 -74 123t-4 138zM914 267q16 -68 -3 -138t-73 -123q-27 -26 -62.5 -44t-75 -28.5t-82 -14t-82.5 -1.5h-59v382q-59 7 -110 33q-40 20 -73 50.5t-56.5 68.5
t-36.5 81.5t-13 91.5q0 64 25 124q49 -12 90 -37t74 -60q9 69 45 126.5t91 95.5q57 -38 93.5 -97t44.5 -130q32 36 74 62t91 38q23 -58 23 -122q0 -47 -12.5 -90.5t-36.5 -81.5t-56.5 -68.5t-72.5 -50.5v-1q-29 -14 -59 -22.5t-62 -11.5v-273q12 41 37.5 79.5t58.5 70.5
q27 27 61 47t70.5 32.5t74.5 15.5t72 -4v0zM914 267z" />
    <glyph glyph-name="uniE615" unicode="&#xe615;" 
d="M512 762q-69 0 -117.5 -48.5t-48.5 -117.5v-373q0 -46 23 -84.5t62 -60.5q-39 -10 -62 -29.5t-23 -42.5h332q0 23 -23 42.5t-62 29.5q39 22 62 60.5t23 84.5v373q0 69 -48.5 117.5t-117.5 48.5zM512 213q-40 0 -68 28t-28 67.5t28 68t68 28.5t68 -28.5t28 -68t-28 -67.5
t-68 -28zM512 468q-40 0 -68 28t-28 68t28 68t68 28t68 -28t28 -68t-28 -68t-68 -28zM148 589l-49 49q-47 -48 -71.5 -109.5t-24.5 -124t24.5 -124t71.5 -108.5l49 48q-77 76 -77 184.5t77 184.5zM186 551q-61 -61 -61 -146.5t61 -146.5l48 49q-40 40 -40 97.5t40 98.5z
M925 638l-49 -49q77 -76 77 -184.5t-77 -184.5l49 -48q47 47 71.5 108.5t24.5 124t-24.5 124t-71.5 109.5zM838 551l-48 -48q40 -41 40 -98.5t-40 -97.5l48 -49q61 61 61 146.5t-61 146.5z" />
    <glyph glyph-name="uniE616" unicode="&#xe616;" 
d="M873 415l-73 187q-25 66 -98 66h-102q-34 78 -51 78h-73q-8 0 -20.5 -19.5t-21.5 -38.5l-8 -20h-104q-73 0 -98 -66l-72 -187q-27 -3 -53.5 -30.5t-26.5 -70.5v-237h81v-60q0 -33 17.5 -51.5t38 -18.5t37.5 19t17 51v60h498v-60q0 -32 17 -51t37.5 -19t38 18.5t17.5 51.5
v60h81v237q0 43 -26.5 70.5t-52.5 30.5zM281 564q11 36 41 36h381q29 0 40 -36l55 -144h-572zM249 220q-26 0 -44 19t-18 45.5t18 45.5t44 19t44 -19t18 -45.5t-18 -45.5t-44 -19zM775 220q-26 0 -44 19t-18 45.5t18 45.5t44 19t44 -19t18 -45.5t-18 -45.5t-44 -19z" />
    <glyph glyph-name="uniE617" unicode="&#xe617;" 
d="M671 454q15 0 31 -2q-20 93 -113 154.5t-212 61.5q-87 0 -161 -34.5t-117.5 -95t-43.5 -131.5q0 -122 129 -208l-32 -93l112 54q82 -15 113 -15q14 0 30 1q-10 32 -10 64q0 102 80 173t194 71zM498 538q18 0 29 -11t11 -28t-11 -27.5t-29 -10.5q-19 0 -33.5 10.5
t-14.5 27.5t14.5 28t33.5 11zM272 461q-19 0 -33.5 10.5t-14.5 27.5t14.5 28t33.5 11t30 -11t11 -28t-11 -27.5t-30 -10.5zM966 214q0 92 -82.5 158t-191.5 66q-115 0 -194.5 -65.5t-79.5 -158.5t79.5 -158t194.5 -65q32 0 96 15l89 -46l-24 77q113 81 113 177zM603 253
q-12 0 -22 9.5t-10 21t10 21t22 9.5q17 0 28.5 -9t11.5 -21.5t-11 -21.5t-29 -9zM780 253q-12 0 -22 9.5t-10 21t10 21t22 9.5q18 0 29.5 -9t11.5 -21.5t-11.5 -21.5t-29.5 -9z" />
    <glyph glyph-name="uniE618" unicode="&#xe618;" 
d="M769 384l-456 457q-10 9 -10 22.5t9.5 23t23 9.5t23.5 -10l474 -473q0 -1 3 -1.5t4 -1.5q11 -11 9 -26q2 -15 -9 -25q-1 -1 -4 -2l-3 -1l-474 -474q-10 -10 -23.5 -10t-23 9.5t-9.5 23t10 23.5z" />
    <glyph glyph-name="uniE619" unicode="&#xe619;" 
d="M426 498q19 20 19 48t-19 47l-72 72q-19 19 -47.5 19t-47.5 -19l-20 -20l167 -167zM689 195l167 -166l19 19q20 20 20 48t-19 48l-72 71q-19 19 -47.5 19t-47.5 -19zM313 102q185 -184 344 -184q37 0 69.5 10.5t45.5 20t23 18.5l16 16l-167 167l-29 -29q-6 -6 -15.5 -6
t-16.5 6l-251 251q-7 7 -7 16.5t7 15.5l29 29l-167 167l-16 -16q-4 -5 -10.5 -13t-18 -32t-17 -51.5t-2 -70t21 -87.5t58.5 -105t103 -123z" />
    <glyph glyph-name="uniE61A" unicode="&#xe61a;" 
d="M513 -212q-102 0 -195.5 38.5t-166 111t-111 166t-38.5 195.5t38.5 195.5t111 166t166 111t195.5 38.5t195.5 -38.5t166 -111t111 -166t38.5 -195.5t-38.5 -195.5t-111 -166t-166 -111t-195.5 -38.5zM513 734q-87 0 -166.5 -33t-141 -94.5t-94.5 -141t-33 -166.5
t33 -166.5t94.5 -141t141 -94.5t166.5 -33t166.5 33t141 94.5t94.5 141t33 166.5t-33 166.5t-94.5 141t-141 94.5t-166.5 33zM391 409h-80q0 57 11 89q15 48 61 83q25 20 61 31t71 11q82 0 136 -46q58 -49 58 -134q0 -43 -19 -75q-15 -27 -67 -75q-39 -38 -50 -53
q-29 -40 -29 -115h-81q0 73 20 113q14 29 67 84q40 42 50 53q23 30 23 74q0 37 -22 66q-30 38 -88 38q-75 0 -105 -57q-17 -34 -17 -87zM550 51v-93h-87v93h87z" />
    <glyph glyph-name="uniE61B" unicode="&#xe61b;" 
d="M600 218.5q0 -21.5 15 -36.5t36.5 -15t36.5 15t15 36.5t-15 36.5t-36.5 15t-36.5 -15t-15 -36.5zM320 218.5q0 -21.5 15 -36.5t36 -15t36 15t15 36.5t-15 36.5t-36 15t-36 -15t-15 -36.5zM446 673h132q7 0 12 5t5 12t-5 12t-12 5h-132q-7 0 -12 -5t-5 -12t5 -12t12 -5z
M512 894q-104 0 -198.5 -40.5t-162.5 -109t-108.5 -162.5t-40.5 -198t40.5 -198t108.5 -162.5t162.5 -109t198.5 -40.5t198 40.5t162.5 109t109 162.5t40.5 198t-40.5 198t-109 162.5t-162.5 109t-198 40.5zM778 218q0 -43 -29.5 -73t-72.5 -30h3l89 -119h-78l-40 61h-273
l-40 -61h-78l89 119q-43 0 -72.5 30t-29.5 73v431q0 43 29.5 73t72.5 30h101q-26 10 -26 37q0 17 11.5 28.5t28 11.5t28 -11.5t11.5 -28.5q0 -27 -26 -37h72q-26 10 -26 37q0 17 11.5 28.5t28 11.5t28 -11.5t11.5 -28.5q0 -27 -26 -37h101q43 0 72.5 -30t29.5 -73v-431z
M662 626h-300q-21 0 -36 -15t-15 -36v-76q0 -21 15 -36t36 -15h300q21 0 36 15t15 36v76q0 21 -15 36t-36 15z" />
    <glyph glyph-name="uniE61C" unicode="&#xe61c;" horiz-adv-x="1025" 
d="M176 -212h822q11 0 18.5 7.5t7.5 18.5v994zM756 -123l-173 132l68 84l102 -84l158 190l68 -53z" />
    <glyph glyph-name="uniE61D" unicode="&#xe61d;" 
d="M512 894q-104 0 -198 -40.5t-162.5 -109t-109 -162.5t-40.5 -198t40.5 -198t109 -162.5t162.5 -109t198 -40.5t198 40.5t162.5 109t109 162.5t40.5 198t-40.5 198t-109 162.5t-162.5 109t-198 40.5zM687 97l-121 228l120 120l34 -311zM819 612l-362 -368l-9 -148l-12 -30
l-84 159l-159 88l30 11l154 10l92 90l-251 146l43 39l338 -49q70 70 121 123q14 13 32.5 17.5t30.5 1.5l12 -3l23 -23q1 1 6 -11t5.5 -25.5t-10.5 -27.5z" />
    <glyph glyph-name="uniE61E" unicode="&#xe61e;" 
d="M886 -25l-168 169q74 91 74 209q0 90 -44.5 166t-120.5 120.5t-166 44.5t-166.5 -44.5t-120.5 -120.5t-44 -166t44 -166.5t120.5 -120.5t166.5 -44q117 0 208 74l169 -169q10 -10 24 -10t24 10t10 24t-10 24zM199 353q0 108 76.5 184.5t185 76.5t185 -76.5t76.5 -184.5
q0 -103 -70 -178q-8 -9 -13 -14q-76 -70 -178 -70q-109 0 -185.5 76.5t-76.5 185.5z" />
    <glyph glyph-name="uniE61F" unicode="&#xe61f;" 
d="M439 526h132q22 42 38 82h-203q17 -35 33 -82zM901 832h-782q-23 0 -39.5 -16.5t-16.5 -39.5v-782q0 -23 16.5 -39.5t39.5 -16.5h782q23 0 39.5 16.5t16.5 39.5v782q0 23 -16.5 39.5t-39.5 16.5zM302 361q82 46 139 110l34 -30q-57 -69 -142 -120zM386 341h248v-164h-248
v164zM542 441l33 31q84 -59 139 -115l-36 -36q-51 58 -136 120zM807 608h-145q-15 -40 -38 -82h148v-362q0 -66 -59 -66h-68l-12 44l65 -2q28 0 28 35v309h-433v-385h-46v427h141q-14 41 -35 82h-140v46h273q-12 31 -25 53l53 9q15 -33 24 -62h269v-46zM432 298h156v-79
h-156v79z" />
    <glyph glyph-name="uniE620" unicode="&#xe620;" 
d="M176 154q0 -23 16 -39t39 -16h167v-112h-222q-23 0 -43.5 8.5t-35.5 23.5t-24 35.5t-9 44.5v559q0 22 9 43t24 36t35.5 24t43.5 9h671q24 0 44 -9t35 -24t24 -36t9 -43v-221l-112 -1v54q0 24 -16.5 40t-39.5 16h-560q-23 0 -39 -16t-16 -40v-336zM941 116q12 -5 16 -17.5
t2 -28.5t-8.5 -32.5t-15 -29.5t-19 -19.5t-19.5 -1.5q-17 8 -41 24t-51.5 36t-57 43t-57.5 46q-5 12 -17 15q-1 0 -1.5 1t-1.5 2q-1 -1 -1 -1.5t-1 -1.5h-2q-11 0 -19.5 -8t-8.5 -18q0 -7 4 -14q-6 -4 -15.5 -8t-20.5 -5.5t-21.5 0t-18.5 7.5q-21 13 -39 27t-37 26
q-6 3 -12 10.5t-10 16.5t-4 18t7 19q2 2 3 6q8 -5 16 -5q11 0 19 8t8 19q0 7 -3.5 13t-7.5 9q18 26 36.5 52.5t35.5 52.5q6 -2 13 -2q11 0 19 7.5t8 19.5q0 9 -6 17q35 32 77 -1q15 -13 30.5 -26t29.5 -24q29 -24 11 -66q-9 -2 -15 -9.5t-6 -17.5q0 -3 2 -7
q-6 -10 -11.5 -20t-13.5 -19q33 -17 66.5 -34.5t63.5 -32.5l55 -28q25 -12 40 -18z" />
    <glyph glyph-name="uniE621" unicode="&#xe621;" 
d="M384 384l456 -456q10 -10 10 -23.5t-10 -23t-23 -9.5t-23 10l-474 474q-1 0 -3.5 1t-4.5 2q-10 10 -9 25q-1 15 9 25q2 2 4.5 2.5t3.5 1.5l474 474q9 9 22.5 9t23 -9.5t9.5 -23t-9 -22.5z" />
    <glyph glyph-name="uniE622" unicode="&#xe622;" 
d="M512 832q-122 0 -225 -60t-163 -163t-60 -225t60 -225t163 -163t225 -60t225 60t163 163t60 225t-60 225t-163 163t-225 60zM690 418v-95h-126v-33h126v-95h-126v-91h-93v91h-122v95h122v33h-122v95h72l-120 219h108l103 -189l103 189h108l-120 -219h87z" />
    <glyph glyph-name="uniE623" unicode="&#xe623;" 
d="M512 -92q-246 0 -405 218q-67 92 -95 180q3 8 8 22.5t25.5 56t45 79t67 83.5t91 79t117.5 55.5t146 22.5q60 0 115.5 -13.5t99 -36.5t82 -53t66.5 -63t51.5 -66t39 -63t26.5 -53t15 -36l5 -14q-3 -8 -8 -22.5t-25.5 -56t-45 -79t-67 -83.5t-91 -79t-117.5 -55.5
t-146 -22.5zM512 571q-104 0 -177 -77.5t-73 -187.5t73 -187.5t177 -77.5t177 77.5t73 187.5t-73 187.5t-177 77.5zM512 173q-52 0 -88.5 39t-36.5 94q0 1 0.5 3.5t0.5 3.5q18 -7 30 -7q39 0 66.5 29t27.5 70q0 14 -6 33h2h4q52 0 88.5 -38.5t36.5 -93.5t-36.5 -94
t-88.5 -39z" />
    <glyph glyph-name="uniE624" unicode="&#xe624;" 
d="M512 896q-139 0 -257 -68.5t-186.5 -186.5t-68.5 -257t68.5 -257t186.5 -186.5t257 -68.5t257 68.5t186.5 186.5t68.5 257t-68.5 257t-186.5 186.5t-257 68.5zM840 378v-1v-1h-1v-1q-1 -8 -6 -14q-8 -9 -22 -24q-67 -67 -139 -105q-55 -28 -105 -38q-60 -11 -119 2
q-92 20 -186 97q-44 36 -71 68q-14 18 0 36q8 9 22 23q66 68 139 106q55 28 104 37q61 11 120 -1q91 -20 185 -97q45 -36 72 -68q5 -6 6 -14v-1q1 0 1 -1v-1v-1v-1zM512 507q-51 0 -87 -36t-36 -87t36 -87t87 -36t87 36t36 87t-36 87t-87 36zM512 323q-25 0 -43 18t-18 43
t18 43t43 18t43 -18t18 -43t-18 -43t-43 -18z" />
    <glyph glyph-name="uniE625" unicode="&#xe625;" 
d="M920 747h-816q-16 0 -27.5 -11.5t-11.5 -27.5v-816q0 -16 11.5 -27.5t27.5 -11.5h816q16 0 27.5 11.5t11.5 27.5v816q0 16 -11.5 27.5t-27.5 11.5zM334 223h-154v154h154v-154zM593 223h-154v154h154v-154zM851 223h-154v154h154v-154z" />
    <glyph glyph-name="uniE626" unicode="&#xe626;" horiz-adv-x="1025" 
d="M980 -37q-48 27 -120 47v625q0 29 -18.5 49t-47.5 20h-405q-29 0 -48 -20t-19 -49v-592q-8 -1 -21 -3v2v2q0 48 -30.5 81.5t-74.5 33.5t-75 -33.5t-31 -81.5q0 -25 11 -49q-41 -14 -71 -31q-21 -20 -27 -35t1 -21t17 -9.5t20 -3.5h10h901q63 -4 72 16q7 17 -44 52z
M634 547q0 15 10 25t25 10h69q15 0 25 -10t10 -25v-95q0 -15 -10 -25t-25 -10h-60q-16 0 -30 10.5t-14 24.5v95zM634 295q0 15 10 25t25 10h69q15 0 25 -10t10 -25v-96q0 -14 -10 -24.5t-25 -10.5h-60q-16 0 -30 10.5t-14 24.5v96zM409 547q0 15 10 25t24 10h70
q14 0 24.5 -10t10.5 -25v-95q0 -15 -10.5 -25t-24.5 -10h-61q-15 0 -29 10.5t-14 24.5v95zM409 295q0 15 10 25t24 10h70q14 0 24.5 -10t10.5 -25v-96q0 -14 -10.5 -24.5t-24.5 -10.5h-61q-15 0 -29 10.5t-14 24.5v96z" />
    <glyph glyph-name="uniE627" unicode="&#xe627;" 
d="M752 540l-13 13q-11 11 -26 11t-26 -11l-173 -173l-169 169q-11 11 -26.5 11t-26.5 -11l-13 -13q-11 -11 -11 -26.5t11 -26.5l168 -169l-169 -170q-11 -11 -11 -26t11 -26l13 -13q11 -11 26 -11t26 11l170 170l178 -179q11 -11 26.5 -11t26.5 11l14 13q11 11 11 26.5
t-11 26.5l-179 179l173 173q11 11 11 26t-11 26z" />
    <glyph glyph-name="uniE628" unicode="&#xe628;" 
d="M949 535q-11 11 -26.5 11t-26.5 -11l-382 -386l-387 384q-11 11 -26.5 11t-26.5 -11t-11 -26.5t11 -26.5l412 -408h1l1 -1v-1q11 -11 26 -11q16 0 27 11l408 412q11 11 11 26.5t-11 26.5zM949 535z" />
    <glyph glyph-name="uniE629" unicode="&#xe629;" 
d="M578 384q-9 0 -16 -7.5t-7 -16t7 -16t16 -7.5q12 0 20 7t8 16.5t-8 16.5t-20 7zM703 384q-8 0 -15 -7.5t-7 -16t7 -16t15 -7.5q13 0 21 7t8 16.5t-8 16.5t-21 7zM512 893q-104 0 -198 -40t-162.5 -108.5t-108.5 -162.5t-40 -198t40 -198t108.5 -162.5t162.5 -108.5
t198 -40t198 40t162.5 108.5t108.5 162.5t40 198t-40 198t-108.5 162.5t-162.5 108.5t-198 40zM418 254q-22 0 -80 12l-80 -41l23 71q-92 66 -92 159q0 84 67 142.5t162 58.5q84 0 149.5 -47.5t80.5 -118.5q-12 1 -22 1q-81 0 -137.5 -54.5t-56.5 -132.5q0 -24 7 -49
q-11 -1 -21 -1zM755 171l17 -59l-63 36q-45 -12 -68 -12q-82 0 -138.5 50t-56.5 121t56.5 121.5t138.5 50.5q77 0 135.5 -51t58.5 -121q0 -74 -80 -136zM503 496q13 0 21 8.5t8 21.5t-8 21t-21 8t-23.5 -8t-10.5 -21t10.5 -21.5t23.5 -8.5zM344 555q-14 0 -24.5 -8
t-10.5 -21t10.5 -21.5t24.5 -8.5q12 0 20 8.5t8 21.5t-8 21t-20 8z" />
    <glyph glyph-name="uniE62A" unicode="&#xe62a;" 
d="M0 812v-1024h1024v1024h-1024zM773 254l-405 -267v99l301 189v4l-301 215v100l405 -296v-44z" />
    <glyph glyph-name="uniE62B" unicode="&#xe62b;" horiz-adv-x="1025" 
d="M0 812v-1024h1024v1024h-1024zM663 516l-301 -215v-4l301 -190v-98l-405 267v43l405 296v-99z" />
    <glyph glyph-name="uniE62C" unicode="&#xe62c;" 
d="M742 840q-66 0 -126.5 -27.5t-102.5 -76.5q-43 49 -103 76.5t-126 27.5q-119 0 -200 -79t-81 -195q0 -31 7 -62t16.5 -58t31 -60.5t38 -57.5t51 -61t57 -60.5t68.5 -66.5t73 -67.5t83 -74.5q7 -6 11 -9l74 -65l74 65q3 3 10 9q56 50 83 74.5t73.5 67.5t69 66.5t57 60.5
t51 61t37.5 57.5t30.5 60.5t16.5 58t7 62q0 116 -81 195t-199 79zM544 54l-10 -9l-21 -18l-21 18l-11 9q-80 72 -121 109.5t-93.5 90t-85.5 92.5q-99 119 -99 220q0 84 58 141t144 57q48 0 92.5 -20.5t76.5 -57.5l60 -69l60 69q31 37 76 57.5t93 20.5q86 0 144 -57t58 -141
q0 -101 -99 -220q-33 -40 -86 -92.5t-94 -90t-121 -109.5zM544 54z" />
    <glyph glyph-name="uniE62D" unicode="&#xe62d;" 
d="M512 152l-343 429h686z" />
    <glyph glyph-name="uniE62E" unicode="&#xe62e;" 
d="M148 -39q-13 -15 -33.5 -15.5t-35 13t-15.5 33.5t12 35l403 399q13 15 33 16t35 -13v0l2 -1v-1l1 -1v0h1l401 -399q14 -15 13 -35t-16 -33.5t-35 -13t-34 15.5l-366 360zM148 347q-13 -15 -33.5 -16t-35 13t-15.5 34t12 35l403 399q13 15 33 16t35 -13v0l2 -1v-1l1 -1v0
l1 -1l401 -398q14 -15 13 -35t-16 -34t-35 -13t-34 16l-366 360z" />
    <glyph glyph-name="uniE62F" unicode="&#xe62f;" 
d="M876 723q13 15 33.5 15.5t35 -13t15.5 -33.5t-12 -35l-402 -399h-1v0q-13 -15 -33 -16t-35 13v0l-2 1v1l-1 1v0h-1l-401 399q-14 15 -13 35t16 33.5t35 13t34 -15.5l366 -360zM876 337q13 15 33.5 16t35 -13t15.5 -34t-12 -35l-402 -399h-1v0q-13 -15 -33 -16t-35 13v0
l-2 1v1l-1 1v0l-1 1l-401 398q-14 15 -13 35t16 34t35 13t34 -16l366 -360z" />
    <glyph glyph-name="uniE630" unicode="&#xe630;" 
d="M1004 422l-188 -161q-19 -19 -14 -45l44 -258q5 -31 -17 -48q-14 -10 -32 -10q-13 0 -25 6l-237 128q-24 12 -47 0l-227 -128q-30 -15 -58 4q-31 23 -26 48l54 264q4 26 -15 44l-197 156q-25 23 -14.5 55.5t44.5 37.5l257 45q26 4 38 27l118 250q15 31 49 31t49 -31
l114 -250q12 -23 38 -27l262 -45q15 -2 27 -12.5t17 -24.5q10 -33 -14 -56z" />
    <glyph glyph-name="uniE631" unicode="&#xe631;" 
d="M705 469v415h213q47 -5 69 -29.5t22 -78.5v-481v-14v-15q-9 0 -27 -0.5t-26 -0.5q-567 2 -701 2q-50 -1 -76 -15q-49 -27 -70 -93.5t-2 -131.5q18 -63 56 -90.5t106 -27.5q533 0 700 -1h11q6 0 8.5 -0.5t7 -1.5t6 -3t3 -5.5t1.5 -9.5q0 -3 -1 -5.5t-2 -4t-4 -2.5l-5 -2
q-1 0 -5 -0.5t-5 -0.5h-6h-4q-344 0 -811 1q-68 0 -95 61q-1 2 -5 11.5t-5 11.5t-4 10t-3.5 12.5t-2.5 13t-3 18t-1 21.5q-4 367 -2 713q0 56 12 80t58 44q17 7 61 14h355v-417q7 7 17 18q11 13 24.5 27.5t18 20t12 14.5t17.5 23zM1002 192q-74 -97 2 -208q-40 -3 -42 -3
h-691q-50 0 -77 28t-28 80q-1 49 26.5 76t78.5 27h691h40zM1009 295v-1v-2v-2v-4v-8v-12q-9 0 -27 -0.5t-26 -0.5zM42 746q1 101 93 128q3 1 18 4.5t20 5.5z" />
    <glyph glyph-name="uniE632" unicode="&#xe632;" 
d="M512 750q-91 0 -173.5 -35t-142 -95t-95 -142.5t-35.5 -173t35.5 -173t95 -142.5t142 -95t173.5 -35t173.5 35t142 95t95 142.5t35.5 173t-35.5 173t-95 142.5t-142 95t-173.5 35zM568 28h-103l-1 225l-225 -1v103h225v226h102l1 -225h225v-102l-225 -1z" />
    <glyph glyph-name="uniE633" unicode="&#xe633;" 
d="M262 517h96v-96h-96v96zM454 517h96v-96h-96v96zM514.5 886q-103.5 0 -198 -40t-162.5 -108t-108 -162.5t-40 -198t40 -197.5t108 -162t162.5 -108.5t198 -40.5t197.5 40.5t162 108.5t108.5 162t40.5 197.5t-40.5 198t-108.5 162.5t-162 108t-197.5 40zM839 132h-673v48
h673q10 0 17 -7t7 -16.5t-7 -17t-17 -7.5zM839 228h-673v385h288q151 0 306 -96h-114v-96h234q55 -58 55 -96q0 -59 -24.5 -78t-71.5 -19z" />
    <glyph glyph-name="uniE634" unicode="&#xe634;" 
d="M508.5 893q-103.5 0 -197.5 -40.5t-162 -108.5t-108.5 -162.5t-40.5 -197.5t40.5 -197.5t108.5 -162.5t162 -108.5t197.5 -40.5t198 40.5t162.5 108.5t108 162.5t40 197.5t-40 197.5t-108 162.5t-162.5 108.5t-198 40.5zM227 681q0 11 8 18.5t19 7.5h514q11 0 18.5 -7.5
t7.5 -18.5v-14q0 -10 -7.5 -18t-18.5 -8h-514q-11 0 -19 8t-8 18v14zM807 153v-92h-593v264h66v-172h461v172h66v-172zM787.5 351q-35.5 0 -60.5 19t-25 47q0 9 1 13h-17q1 -4 1 -13q0 -28 -25 -47t-60.5 -19t-60.5 19t-25 47q0 9 1 13h-17q1 -4 1 -13q0 -28 -25 -47
t-60.5 -19t-60.5 19t-25 47q0 9 1 13h-17q2 -4 2 -13q0 -28 -25 -47t-61 -19t-61 19t-25 47q0 9 2 13h2l66 185h593l66 -185h-1q1 -4 1 -13q0 -28 -25 -47t-60.5 -19z" />
    <glyph glyph-name="uniE635" unicode="&#xe635;" 
d="M510 642h70v-72h-70v72zM510 214h70v-71h-70v71zM510 428h70v-71h-70v71zM449 535h70v-71h-70v71zM449 321h70v-71h-70v71zM206 215h70v-71h-70v71zM206 464h70v-71h-70v71zM206 337h70v-71h-70v71zM769 281h70v-71h-70v71zM389 642h70v-72h-70v72zM514.5 887
q-103.5 0 -197.5 -40t-162 -108t-108.5 -162.5t-40.5 -198t40.5 -197.5t108.5 -162t162 -108.5t197.5 -40.5t198 40.5t162.5 108.5t108 162t40 197.5t-40 198t-108 162.5t-162.5 108t-198 40zM319 51h-157v448h157v-448zM618 51h-262v656h262v-656zM867 51h-216v385h31v85
h38v84h28v77h23v-77h27v-84h38v-85h31v-385zM687 390h70v-71h-70v71zM687 171h70v-71h-70v71zM389 428h70v-71h-70v71zM389 214h70v-71h-70v71z" />
    <glyph glyph-name="uniE636" unicode="&#xe636;" horiz-adv-x="1025" 
d="M19 896q-8 -1 -13.5 -7t-5.5 -13v-984q0 -8 6 -14t14 -6h984q8 0 14 6t6 14v984q0 8 -6 14t-14 6h-345h-639h-1zM61 835h598h304v-902h-902v902z" />
    <glyph glyph-name="uniE637" unicode="&#xe637;" horiz-adv-x="1025" 
d="M19 896q-8 -1 -13.5 -7t-4.5 -13v-984q-1 -8 5 -14t14 -6h1h983q8 0 14 6t6 14v984q1 8 -5 14t-14 6h-1h-345h-638h-2zM61 835h598h305v-902h-903v902zM380 83l-276 275l62 62l214 -214l479 479l62 -61z" />
    <glyph glyph-name="uniE638" unicode="&#xe638;" 
d="M750 792q-80 0 -145 -44.5t-93 -116.5q-29 72 -94 116.5t-145 44.5q-106 0 -181.5 -75t-75.5 -181q0 -116 94 -202l402 -391l244 235q63 57 110 106l47 44q43 40 68.5 94.5t25.5 113.5q0 106 -75.5 181t-181.5 75z" />
    <glyph glyph-name="uniE639" unicode="&#xe639;" 
d="M381 208q63 -63 142 -58q67 4 121 58q48 46 74 132q34 18 58 57q35 55 30 114.5t-37.5 113.5t-84.5 94q3 14 3 28q0 60 -50.5 103t-122 43t-122 -43t-50.5 -103q0 -11 2 -23q-83 -61 -112.5 -153.5t16.5 -173.5q26 -40 61 -58q23 -80 72 -131zM680 722q-80 60 -164.5 61
t-160.5 -51q19 41 63 66.5t98 25.5q57 0 102.5 -28.5t61.5 -73.5zM221 96h124q-1 -11 -1 -23q0 -64 45 -111t111 -52q2 17 -0.5 27.5t-14.5 40.5l15 5q16 -20 22 -32q6 12 22 32q4 -1 16 -5q-9 -22 -11.5 -28t-5 -19t0.5 -20q62 10 103.5 55.5t41.5 106.5q0 12 -2 23h121
q83 -92 87 -237h-758q2 135 84 237zM479 481l9 -9q67 23 119 73l83 -51q-8 -139 -53 -214q-44 -72 -124 -81q-81 9 -125 81q-43 71 -52 200q69 -2 126 14q47 13 87 39q-27 -24 -70 -52zM363 540q27 13 76.5 38t64.5 33q9 -11 16 -21q-70 -54 -157 -50zM289 600
q31 75 115 123q3 -4 7.5 -11t6.5 -10q-80 -44 -129 -102z" />
    <glyph glyph-name="uniE63A" unicode="&#xe63a;" 
d="M924 831h-816q-17 0 -28.5 -11.5t-11.5 -27.5v-816q0 -16 11.5 -27.5t28.5 -11.5h816q16 0 27.5 11.5t11.5 27.5v816q0 16 -11.5 27.5t-27.5 11.5zM338 307h-154v154h154v-154zM597 307h-155v154h155v-154zM855 307h-154v154h154v-154z" />
    <glyph glyph-name="uniE63B" unicode="&#xe63b;" 
d="M512 372zM229 372q0 117 83 200t200 83t200 -83t83 -200t-83 -200t-200 -83t-200 83t-83 200z" />
    <glyph glyph-name="uniE63C" unicode="&#xe63c;" 
d="M910 685l-338 196q-25 15 -60 15t-60 -15l-338 -196q-26 -15 -43 -45t-17 -60v-392q0 -30 17 -60t43 -45l338 -196q25 -15 60 -15t60 15l338 196q26 15 43 45t17 60v392q0 30 -17 60t-43 45zM335 103h-68q-8 0 -13 5t-5 13v312q0 7 5 12.5t13 5.5h68q-1 -3 -1 -7v-336
q0 -3 1 -5zM773 153q-5 -20 -21 -34t-36 -16h-344q1 2 1 5v336q0 4 -1 7h6q74 232 75 234q10 22 31.5 35.5t46.5 13.5q6 0 11 -1q44 -6 63.5 -49.5t8.5 -87.5l-26 -85h179v-1q26 -1 44 -20t18 -45q-5 -31 -56 -291v-1z" />
    <glyph glyph-name="uniE63D" unicode="&#xe63d;" horiz-adv-x="1000" 
d="M777 474q-1 -1 0.5 -10.5t-2.5 -28.5t-8.5 -40.5t-19 -48t-33.5 -50t-51 -46.5t-73 -39q-1 0 -3.5 -0.5t-9 -5t-12 -11t-11 -20t-9.5 -30.5q-2 -10 -7.5 -29t-28 -76.5t-53.5 -114.5l-3 -6q-2 -4 -8.5 -11t-13 -9t-15 5t-16.5 26l-5 -5q-3 -3 -11.5 -8.5t-15.5 -6
t-13.5 8t-8.5 27.5q-1 -1 -3 -2t-8 -3.5t-11 -3t-11 -0.5t-9 5t-5.5 13t1.5 23q-2 -1 -4 -1l-10 -2q-8 -2 -14 -2t-12 1.5t-8.5 6t-0.5 13t10 21.5q-3 0 -8 1t-14.5 5t-13.5 9t0 15t21 22q9 4 25 12t57 30.5t71.5 43t55.5 45t23 40.5q1 8 3.5 20t12 35.5t23.5 32.5
q-2 0 -4.5 -1.5t-8.5 -4.5t-11.5 -4t-10 -0.5t-6.5 5t1 14.5t11 26q-2 -1 -6 -2.5t-14.5 -5t-17 -3.5t-12 2t-2 11t15.5 25l-30 -15q-25 -7 -20 13q3 9 12 25q-2 -1 -5.5 -2t-12 -3.5t-15 -3.5t-12.5 0.5t-7 5.5t4.5 14t18.5 24l-40 -5q-46 -1 0 37l-50 4q-53 9 9 35l-43 5
q-57 12 10 41l-53 16q-57 23 -5 34l-47 34q-39 32 -1 25q10 -1 24 -6q4 -2 10 -4.5t27 -10t43 -11t56.5 -6.5t68.5 3q5 1 16.5 0.5t52.5 -17t89 -50.5q1 -1 4 -2.5t12 -4t19 -1.5t25 7.5t30 20.5q11 10 28 25t54.5 40.5t58.5 24.5q4 0 9.5 -1.5t18.5 -11t20 -26.5
q36 -4 51 -10q-43 -10 -73 -49q-34 -43 -32 -107zM788 639q-3 -8 -0.5 -11t6.5 -2h5q3 7 0.5 10t-7.5 3h-4zM610 588q-12 -5 -45 8.5t-60 28.5l-28 16q-17 9 -39.5 11.5t-36.5 0.5l-15 -2q-46 -1 -2 24l10 6q-20 11 -26.5 19.5t-3.5 12.5t11 6.5t13.5 3t7.5 0.5
q-54 46 -13 47h11q-21 32 -16 40.5t22 3.5l16 -5q-7 12 -8 27t1 24l2 9q14 40 25 15q4 -35 23 -69t42 -58.5t46 -43.5t37.5 -28.5t15.5 -9.5q52 -44 16 -82z" />
    <glyph glyph-name="uniE63E" unicode="&#xe63e;" 
d="M552 386q0 -24 -16.5 -40.5t-40.5 -16.5h-345q-23 0 -39.5 16.5t-16.5 40.5v345q0 23 16.5 39.5t39.5 16.5h345q24 0 40.5 -16.5t16.5 -39.5v-345zM930 382q0 -23 -16.5 -39.5t-39.5 -16.5h-179q-24 0 -40.5 16.5t-16.5 39.5v180q0 23 16.5 39.5t40.5 16.5h179
q23 0 39.5 -16.5t16.5 -39.5v-180zM548 37q0 -23 -16.5 -39.5t-39.5 -16.5h-179q-23 0 -40 16.5t-17 39.5v179q0 24 17 40.5t40 16.5h179q23 0 39.5 -16.5t16.5 -40.5v-179zM927 37q0 -23 -16.5 -39.5t-40.5 -16.5h-179q-23 0 -39.5 16.5t-16.5 39.5v179q0 24 16.5 40.5
t39.5 16.5h179q24 0 40.5 -16.5t16.5 -40.5v-179z" />
    <glyph glyph-name="uniE63F" unicode="&#xe63f;" 
d="M234 621h555v-556h-555v556z" />
    <glyph glyph-name="uniE640" unicode="&#xe640;" 
d="M152 688h305q9 0 14.5 -6t7.5 -18.5t2.5 -20.5t0 -25.5t-0.5 -22.5v-169q0 -6 0.5 -21.5t0 -24t-1.5 -19.5t-5.5 -17.5t-11.5 -9.5t-21 -3.5t-33.5 0.5t-23.5 1h-162q-6 0 -23 -0.5t-25.5 -0.5t-20.5 2t-18 7.5t-7 15.5v309q6 18 23 23zM194 619v-220h220v223h-219
q-1 0 -1 -3zM562 688h305q20 -7 23 -27v-301q-5 -22 -21 -27q-9 -2 -22 -2.5t-30.5 0.5t-24.5 1h-157q-7 0 -24.5 -1t-31 -1t-21.5 3t-12.5 9.5t-6.5 19t-2 21.5t0.5 25.5t0.5 22.5v158q0 8 -0.5 25.5t-0.5 27t2 21.5t7.5 18t15.5 7zM604 619v-220h220v223h-219q-2 0 -1 -3z
M294 554q23 5 39 -8t17 -35q0 -27 -22 -40t-45 -2q-16 9 -21.5 28t3.5 36.5t29 20.5zM704 554q39 8 51 -26q10 -30 -10 -51q-16 -16 -41 -12q-22 4 -30.5 24t0 40.5t30.5 24.5zM455 -84h-302q-19 6 -24 25v308q6 19 20 23q9 2 22 2.5t30.5 -0.5t24.5 -1h156q7 0 24.5 1
t31 0.5t22.5 -2.5q8 -3 13 -9.5t6.5 -18.5t2 -21t0 -25.5t-0.5 -23.5v-162q0 -6 0.5 -24.5t0 -26.5t-2.5 -20t-8 -18t-16 -7zM194 203v-220h220v223h-219q-1 0 -1 -3zM890 245v-86q-1 -7 -0.5 -46t-0.5 -47h-218v50q-5 2 -33 1.5t-34 -0.5q-2 -17 -1.5 -99.5t0.5 -101.5h-40
q-10 2 -16 8.5t-8 18.5t-2 21.5t0.5 27t0.5 24.5v158q0 7 -1 25.5t-0.5 32t2.5 21.5q2 5 4.5 8.5t7 5.5t8 3.5t11 2t11.5 0.5h13h13h148v-136h69q0 12 -0.5 68.5t1.5 67.5q17 0 31 -0.5t23.5 -7t10.5 -20.5zM300 140q25 2 40.5 -17.5t6.5 -45.5q-9 -23 -33.5 -27t-42.5 12.5
t-10.5 45t39.5 32.5zM745 -84h-74v41q0 33 1 39h73v-80zM890 -4v-52q-4 -21 -24 -28h-52q0 8 -0.5 41t1.5 39h75z" />
    <glyph glyph-name="uniE641" unicode="&#xe641;" 
d="M589 -94h-150q-89 0 -164 43t-119 117.5t-44 162.5v36q0 79 40.5 157t109 132.5t147.5 68.5l-92 130q-6 9 -2 21q6 10 18 10h110l50 74q5 8 16 8q8 0 16 -8l52 -74h114q12 0 18 -10q8 -11 -2 -21l-90 -136q118 -30 206.5 -134t88.5 -218v-36q2 -88 -41 -162.5
t-118 -117.5t-164 -43zM657 745h-86q-8 0 -16 8l-42 61l-40 -61q-5 -8 -16 -8h-82l82 -118h4h90q20 0 28 -2zM876 265q0 76 -48.5 151.5t-125 123t-153.5 47.5h-90q-75 0 -146.5 -46.5t-116 -122t-44.5 -153.5v-36q0 -118 84 -200.5t203 -82.5h150q119 0 203 82.5t84 200.5
v36zM535 62v-36q0 -9 -5.5 -14.5t-14.5 -5.5t-14.5 5.5t-5.5 14.5v36q-71 5 -121.5 39.5t-50.5 72.5q0 9 5.5 14.5t14.5 5.5t14.5 -5.5t5.5 -14.5q0 -18 38 -42t94 -30v153h-56q-50 0 -76 24.5t-26 69.5q0 17 7.5 35t24 37.5t49.5 33t77 16.5v36q0 9 5.5 14.5t14.5 5.5
t14.5 -5.5t5.5 -14.5v-36q33 -2 60 -11t42 -20t25 -22.5t13.5 -18.5t3.5 -8q3 -8 -0.5 -15.5t-11 -10.5t-15.5 0.5t-11 11.5l-2 3l-5 8q-3 4 -8.5 9t-14 10.5t-19 10.5t-26 8.5t-33.5 4.5v-136h62q16 -1 33 -6t35 -15.5t29 -30t11 -44.5q3 -59 -47.5 -95.5t-120.5 -41.5z
M495 431q-63 -4 -90.5 -29.5t-27.5 -52.5q0 -25 12.5 -39.5t49.5 -14.5h56v136zM597 255h-62v-153q55 5 93.5 31t38.5 66q0 14 -7 25t-16.5 16.5t-21 9t-17.5 4.5t-8 1z" />
    <glyph glyph-name="uniE642" unicode="&#xe642;" 
d="M863 -100q-23 0 -71 34q-35 26 -44 26q-11 0 -46 -26q-48 -34 -71 -34t-71 34q-35 26 -46 26t-46 -26q-48 -34 -71 -34t-71 34q-35 26 -46 26q-27 0 -105 -56q-9 -8 -21.5 -2t-12.5 18v868q0 9 5.5 14.5t14.5 5.5h169v40q0 9 6 14.5t15 5.5h322q9 0 15 -5.5t6 -14.5v-40
h169q9 0 14.5 -5.5t5.5 -14.5v-868q0 -9 -6 -14.5t-14 -5.5zM653 828h-282v-81h282v81zM843 767h-149v-40q0 -9 -6 -14.5t-15 -5.5h-322q-9 0 -15 5.5t-6 14.5v40h-149v-811q67 45 99 45q23 0 71 -35q35 -26 46 -26t46 26q48 35 71 35t71 -35q35 -26 46 -26t46 26
q48 35 71.5 35t70.5 -35l24 -18v819zM532 158v-36q0 -9 -5.5 -14.5t-14.5 -5.5t-14.5 5.5t-5.5 14.5v36q-72 4 -123 39.5t-51 73.5q0 9 5.5 14.5t15 5.5t15 -5.5t5.5 -14.5q0 -18 38 -42.5t95 -30.5v154h-57q-49 0 -76 24.5t-27 70.5q0 17 8 35t25 37.5t50 33.5t77 17v36
q0 9 5.5 14.5t14.5 5.5t14.5 -5.5t5.5 -14.5v-36q34 -3 61 -12t42 -19.5t25.5 -22.5t13.5 -18.5t3 -8.5q3 -8 -0.5 -15.5t-11 -10.5t-15.5 0.5t-11 11.5l-2 3l-5 8q-3 4 -8.5 9.5t-14 10.5t-19 10t-26.5 8.5t-34 4.5v-137h63q16 -1 33 -6t35 -15.5t29.5 -30t11.5 -45.5
q3 -58 -48 -95t-122 -42zM492 529q-64 -4 -91.5 -29.5t-27.5 -52.5q0 -26 12.5 -40.5t49.5 -14.5h57v137zM595 352h-63v-154q55 5 94 31t39 66q0 15 -7 26t-16.5 16.5t-21 9t-17.5 4.5t-8 1z" />
    <glyph glyph-name="uniE643" unicode="&#xe643;" 
d="M514 -57q-9 0 -15 7q-35 35 -149 119q-38 28 -59 44t-58.5 46.5t-59 51.5t-51.5 54t-46.5 60.5t-34.5 64.5t-24 72t-6 76.5t11 85.5q22 88 97 143.5t173 55.5q69 0 126 -30t94 -83q38 53 95 83t125 30q98 0 173.5 -55.5t96.5 -143.5q50 -205 -122 -383q-61 -64 -205 -170
q-113 -84 -151 -121q0 -7 -10 -7zM292 781q-49 0 -95 -17t-84.5 -56.5t-51.5 -94.5q-9 -39 -9.5 -76.5t5 -69t22 -65t31 -58t43.5 -55.5t48.5 -50t56 -48.5t56.5 -44.5t59 -43v-1q97 -69 139 -108q43 41 140 111q2 1 7 5q38 28 57.5 43t55 44t55 48t47.5 49t42 54.5t30 57.5
t21 64t4.5 68t-9.5 75q-13 55 -51.5 94.5t-84.5 56.5t-94 17q-68 0 -121 -31.5t-83 -90.5q-4 -11 -17.5 -11t-19.5 11q-27 58 -79 90t-120 32z" />
    <glyph glyph-name="uniE644" unicode="&#xe644;" 
d="M875 422q-66 0 -120 78q-46 -78 -119 -78q-67 0 -119 80q-47 -80 -119 -80q-68 0 -120 80q-47 -80 -119 -80q-63 0 -101.5 39.5t-38.5 83.5q0 39 46.5 149.5t75.5 167.5q8 12 18 12h707q13 0 19 -12q121 -263 121 -317q7 -42 -30.5 -82.5t-100.5 -40.5zM860 833h-682
q-112 -237 -112 -288q0 -27 26 -54.5t73 -27.5q28 0 52.5 23t35.5 43t11 24q3 13 18 13t19 -13q1 -3 4 -9.5t13 -22t20.5 -27.5t27 -21.5t34 -9.5t34 9t27.5 22.5t20 27t13 22.5l4 9q7 13 19 13q14 0 18 -13q2 -3 5 -9.5t12.5 -22t20 -27.5t27.5 -21.5t34 -9.5q28 0 52.5 23
t35.5 43t11 24q6 13 18 13q15 0 19 -13q1 -3 4 -9.5t12.5 -22t20 -27.5t27.5 -21.5t35 -9.5q45 0 71.5 28t26.5 54q8 48 -107 288zM891 381q9 0 15 -6t6 -15v-391h-782v391q0 9 6 15t15 6t14.5 -6t5.5 -15v-350h227v163q0 43 29.5 73t72.5 30h42q43 0 72.5 -30t29.5 -73
v-163h227v350q0 9 5.5 15t14.5 6zM601 173q0 26 -17.5 44t-44.5 18h-41q-26 0 -43.5 -18t-17.5 -44v-163h164v163zM46 -72h946q9 0 14.5 -5.5t5.5 -15t-5.5 -15t-14.5 -5.5h-946q-9 0 -15 5.5t-6 15.5q0 8 6.5 14t14.5 6z" />
    <glyph glyph-name="uniE645" unicode="&#xe645;" 
d="M881 -108h-738q-9 0 -14.5 6t-5.5 15v881q0 9 5.5 14.5t14.5 5.5h185v41q0 9 5.5 15t14.5 6h328q9 0 14.5 -6t5.5 -15v-41h185q9 0 14.5 -5.5t5.5 -14.5v-881q0 -9 -5.5 -15t-14.5 -6zM655 835h-286v-82h286v82zM860 773h-164v-41q0 -9 -5.5 -14.5t-14.5 -5.5h-328
q-9 0 -14.5 5.5t-5.5 14.5v41h-164v-840h696v840zM287 521h450q10 0 15.5 -5.5t5.5 -14.5t-5.5 -15t-15.5 -6h-450q-10 0 -15.5 6t-5.5 15t5.5 14.5t15.5 5.5zM287 364h450q10 0 15.5 -6t5.5 -15t-5.5 -14.5t-15.5 -5.5h-450q-10 0 -15.5 5.5t-5.5 14.5t5.5 15t15.5 6z
M287 206h450q10 0 15.5 -5.5t5.5 -15t-5.5 -15t-15.5 -5.5h-450q-10 0 -15.5 5.5t-5.5 15t5.5 15t15.5 5.5z" />
    <glyph glyph-name="uniE646" unicode="&#xe646;" 
d="M60 59q11 -11 27 -11t27 11l395 399l401 -397q11 -11 27 -11t27.5 11t11.5 27t-12 28l-426 422q-1 1 -2 1v1q-11 11 -27 11t-28 -12l-422 -425q-11 -12 -11 -28t12 -27v0zM60 59z" />
    <glyph glyph-name="uniE647" unicode="&#xe647;" 
d="M108 384q0 110 54 203t147 147t203 54v-121q0 -17 12 -28.5t28 -11.5q10 0 24 10t23 20l10 10l226 229h-323q-139 0 -257 -68.5t-186.5 -186.5t-68.5 -257q0 -99 36 -188.5t101 -159.5l76 76q-105 116 -105 272zM887 732l-76 -76q105 -116 105 -272q0 -110 -54 -203
t-147 -147t-203 -54v121q0 17 -12 28.5t-28 11.5q-10 0 -24 -10t-23 -20l-10 -10v0l-226 -229h323q139 0 257 68.5t186.5 186.5t68.5 257q0 99 -36 188.5t-101 159.5z" />
    <glyph glyph-name="uniE648" unicode="&#xe648;" 
d="M512 812q-139 0 -257 -68.5t-186.5 -186.5t-68.5 -257t68.5 -257t186.5 -186.5t257 -68.5t257 68.5t186.5 186.5t68.5 257t-68.5 257t-186.5 186.5t-257 68.5zM512 -161q-94 0 -179 36.5t-147 98.5t-98.5 147t-36.5 179t36.5 179t98.5 147t147 98.5t179 36.5t179 -36.5
t147 -98.5t98.5 -147t36.5 -179t-36.5 -179t-98.5 -147t-147 -98.5t-179 -36.5zM307 326h410v-52h-410v52z" />
    <glyph glyph-name="uniE649" unicode="&#xe649;" 
d="M512 896q-139 0 -257 -68.5t-186.5 -186.5t-68.5 -257t68.5 -257t186.5 -186.5t257 -68.5t257 68.5t186.5 186.5t68.5 257t-68.5 257t-186.5 186.5t-257 68.5zM852 628l-340 -285l-339 285h679zM171 604l226 -192l-226 -271v463zM197 141l216 255l99 -81l100 84l216 -258
h-631zM853 141l-226 271l226 192v-463z" />
    <glyph glyph-name="uniE64A" unicode="&#xe64a;" 
d="M512 748q-91 0 -174 -35.5t-143 -95.5t-95.5 -143t-35.5 -174t35.5 -174t95.5 -143t143 -95.5t174 -35.5t174 35.5t143 95.5t95.5 143t35.5 174t-35.5 174t-95.5 143t-143 95.5t-174 35.5zM636 112l-170 143l1 1v358h90v-319l137 -115z" />
    <glyph glyph-name="uniE64B" unicode="&#xe64b;" horiz-adv-x="1025" 
d="M513 896q-104 0 -199 -40.5t-163.5 -109t-109 -163.5t-40.5 -199t40.5 -198.5t109 -163t163.5 -109.5t199 -41t198.5 41t163 109.5t109 163t40.5 198.5t-40.5 199t-109 163.5t-163 109t-198.5 40.5zM734 139q0 -30 -22.5 -50.5t-54.5 -20.5h-289q-31 0 -54 20.5t-23 50.5
v491q0 29 23 50t54 21h289q32 0 54.5 -21t22.5 -50v-491zM513 145q-11 0 -19.5 -7t-8.5 -17.5t8.5 -18t19.5 -7.5t19 7.5t8 18t-8 17.5t-19 7zM348 624h329v-453h-329v453zM471 649h83q7 0 7 6.5t-7 6.5h-83q-7 0 -7 -6.5t7 -6.5z" />
    <glyph glyph-name="uniE64C" unicode="&#xe64c;" 
d="M511.5 869q-98.5 0 -188.5 -38.5t-155 -103.5t-103.5 -155t-38.5 -188.5t38.5 -188.5t103.5 -155t155 -103.5t188.5 -38.5t188.5 38.5t155 103.5t103.5 155t38.5 188.5t-38.5 188.5t-103.5 155t-155 103.5t-188.5 38.5zM511.5 -51q-88.5 0 -169 34.5t-138.5 92.5
t-92.5 138.5t-34.5 168.5t34.5 168.5t92.5 139t138.5 93t169 34.5t169 -34.5t138.5 -93t92.5 -139t34.5 -168.5t-34.5 -168.5t-92.5 -138.5t-138.5 -92.5t-169 -34.5zM695 418h-149v148q0 10 -11.5 18t-22.5 8t-22.5 -8t-11.5 -18v-148h-150q-10 0 -17.5 -11.5t-7.5 -22.5
t7.5 -22.5t17.5 -11.5h150v-150q0 -10 11.5 -18t22.5 -8t22.5 8t11.5 18v150h149q10 0 17.5 11.5t7.5 22.5t-7.5 22.5t-17.5 11.5z" />
    <glyph glyph-name="uniE64D" unicode="&#xe64d;" horiz-adv-x="1025" 
d="M512.5 647q-33.5 0 -58.5 -12t-37 -28t-19.5 -36.5t-9 -32.5t-2.5 -23v-78h252v78q0 11 -1.5 23t-9 32.5t-19.5 36.5t-37 28t-58.5 12zM512.5 332q-20.5 0 -35.5 -15.5t-15 -37.5q0 -30 25 -45v-86h51v86q25 15 25 45q0 22 -15 37.5t-35.5 15.5zM512.5 896
q-104.5 0 -199 -40.5t-163 -109t-109 -163.5t-40.5 -199t40.5 -199t109 -163.5t163 -109t199 -40.5t199 40.5t163 109t109 163.5t40.5 199t-40.5 199t-109 163.5t-163 109t-199 40.5zM764 69h-504v367h76v79q0 4 0.5 10.5t4 26t9.5 36.5t19 38.5t31 36.5t47 25.5t65 10.5
t65.5 -10t47.5 -26.5t31 -36t19 -39t9.5 -35.5t3.5 -26l1 -11v-79h75v-367z" />
    <glyph glyph-name="uniE64E" unicode="&#xe64e;" 
d="M16 406l495 353v-253h507v-200h-507v-253z" />
    <glyph glyph-name="uniE64F" unicode="&#xe64f;" 
d="M752 419h-483q-14 0 -24 -10t-10 -24.5t10 -24.5t24 -10h483q15 0 25 10t10 24.5t-10 24.5t-25 10zM511 -93q-97 0 -185 38q-86 36 -152 102t-102 152q-38 88 -38 185.5t38 185.5q36 86 102 152t152 102q88 38 185 38t186 -38q86 -36 152 -102t102 -152q37 -89 37 -186
t-37 -185q-36 -86 -102 -152t-152 -102q-89 -38 -186 -38zM511.5 807q-114.5 0 -212 -57t-154 -154t-56.5 -211.5t56.5 -212t154 -154t212 -56.5t211.5 56.5t153.5 154t56.5 212t-56.5 211.5t-153.5 154t-211.5 57z" />
    <glyph glyph-name="uniE650" unicode="&#xe650;" 
d="M512 812q-139 0 -257 -68.5t-186.5 -186.5t-68.5 -257t68.5 -257t186.5 -186.5t257 -68.5t257 68.5t186.5 186.5t68.5 257t-68.5 257t-186.5 186.5t-257 68.5zM768 192q0 -8 -6 -14t-14 -6h-344h-2t-4 1q-14 5 -14 19v344q0 8 6 14t14 6h88q8 0 14 -6t6 -14v-236h236
q8 0 14 -6t6 -14v-88z" />
    <glyph glyph-name="uniE651" unicode="&#xe651;" 
d="M513.5 889q-102.5 0 -195.5 -40t-160 -107.5t-107 -160.5t-40 -195t40 -195.5t107 -160.5t160 -107t195.5 -40t195.5 40t160.5 107t107.5 160.5t40 195.5t-40 195t-107.5 160.5t-160.5 107.5t-195.5 40zM825 519l-356 -355q-9 -9 -22 -9t-22 9l-222 222q-10 9 -10 22
t10 22l44 45q9 9 22 9t23 -9l155 -156l289 289q9 9 22 9t22 -9l45 -44q9 -9 9 -22.5t-9 -22.5z" />
    <glyph glyph-name="uniE652" unicode="&#xe652;" 
d="M513.5 889q-102.5 0 -195.5 -40t-160 -107.5t-107 -160.5t-40 -195t40 -195.5t107 -160.5t160 -107t195.5 -40t195.5 40t160.5 107t107.5 160.5t40 195.5t-40 195t-107.5 160.5t-160.5 107.5t-195.5 40zM765 355q0 -14 -9 -23t-22 -9h-440q-13 0 -22.5 9t-9.5 23v62
q0 13 9.5 22.5t22.5 9.5h440q13 0 22 -9.5t9 -22.5v-62z" />
    <glyph glyph-name="uniE653" unicode="&#xe653;" 
d="M63 442v-469q0 -8 0.5 -15t2.5 -12l2 -10q2 -5 3.5 -9t3.5 -7t3.5 -5t2.5 -3.5t2 -2.5l1 -1l288 295zM648 203l289 -295q20 19 20 65v469zM510 109l-92 61l-290 -301q21 -12 45 -12h683q29 4 34 12q-16 17 -88 92.5t-136 142.5l-64 66zM950 503l-440 248l-441 -248
l440 -328z" />
    <glyph glyph-name="uniE654" unicode="&#xe654;" 
d="M699 677q0 26 -18.5 44.5t-43.5 18.5h-250q-25 0 -43.5 -18.5t-18.5 -44.5h-190v-122h754v122h-190zM198 491v-568q0 -26 18 -44.5t44 -18.5h504q26 0 44 18.5t18 44.5v568h-628zM386 -12h-125v375h125v-375zM575 -12h-125v375h125v-375zM763 -12h-125v375h125v-375z" />
    <glyph glyph-name="uniE655" unicode="&#xe655;" 
d="M313 525l41 269h-211l-88 -231q-4 -12 -4 -25q0 -43 38.5 -73t93.5 -30q50 0 87 26t43 64zM512 435q55 0 93.5 30t38.5 73q0 1 -1 6l-26 250h-210l-26 -250q-1 -4 -1 -6q0 -43 38.5 -73t93.5 -30zM768 382v-203h-512v202q-35 -12 -73 -12q-11 0 -29 2v-325
q0 -29 21 -50.5t50 -21.5h574q29 0 50 21.5t21 50.5v325q-18 -2 -29 -2q-38 0 -73 13zM969 563l-88 231h-211l40 -269q6 -38 43.5 -64t87.5 -26q55 0 93.5 30t38.5 73q0 13 -4 25z" />
    <glyph glyph-name="uniE656" unicode="&#xe656;" 
d="M603 179q19 38 49 68h-554v69h720h2h1h37v-3q33 -6 64 -20v569h-888v-888h569q-23 49 -23 102q0 18 3 35h-485v68h505zM478 725h380v-68h-380v68zM98 589h760v-69h-760v69zM98 452h760v-68h-760v68zM820 247q-71 0 -121 -50t-50 -120.5t50 -121t121 -50.5t121 50.5
t50 121t-50 120.5t-121 50zM862 23l-49 -49l-96 97l48 48l48 -48l97 96l48 -48z" />
    <glyph glyph-name="uniE657" unicode="&#xe657;" horiz-adv-x="1025" 
d="M274 834q-88 0 -150 -62t-62 -150t62 -150.5t150 -62.5h213v213q0 88 -62.5 150t-150.5 62zM962 622q0 88 -62 150t-150 62t-150 -62t-62 -150v-213h212q88 0 150 62.5t62 150.5zM750 -66q88 0 150 62t62 150t-62 150.5t-150 62.5h-212v-213q0 -88 62 -150t150 -62z
M62 146q0 -88 62 -150t150 -62t150.5 62t62.5 150v213h-213q-88 0 -150 -62.5t-62 -150.5z" />
    <glyph glyph-name="uniE658" unicode="&#xe658;" 
d="M780 -117h-2v176h177v-1zM717 -117h-609q-35 0 -40 47v906q0 34 22 45q8 7 18 7h807q35 0 40 -44v-726h-238v-235zM185 236h416v59h-416v-59zM836 650h-651v-59h651v59zM836 414v59h-651v-59h651z" />
    <glyph glyph-name="uniE659" unicode="&#xe659;" 
d="M894 862h-762q-41 0 -69.5 -28.5t-28.5 -69.5v-762q0 -40 28.5 -69t69.5 -29h762q40 0 69 29t29 69v762q0 41 -29 69.5t-69 28.5zM807 590l-2 -1v-2q-16 -108 -99.5 -180.5t-192.5 -72.5t-193 72.5t-99 180.5l-1 2l-2 1q-23 14 -23 39q0 19 13.5 32.5t32.5 13.5
t32.5 -13.5t13.5 -32.5q0 -21 -17 -35l-2 -1v-3q15 -91 84 -150t160.5 -59t161 59t83.5 150l1 2l-3 2q-17 14 -17 35q0 19 13.5 32.5t32.5 13.5v0q19 0 32.5 -13.5t13.5 -32.5q0 -25 -23 -39z" />
    <glyph glyph-name="uniE65A" unicode="&#xe65a;" 
d="M896 487h-290v293h-193v-293h-290v-188h290v-307h193v307h290v188z" />
    <glyph glyph-name="uniE65B" unicode="&#xe65b;" 
d="M295 794q13 -11 27 -23.5t25 -29.5q6 -9 14 -20.5t15 -22.5q7 -12 15 -26h233q8 12 15 24q5 10 12 20.5t13 17.5q11 16 22 30t33 27q9 6 15 15t7.5 18t-2 17.5t-15.5 12.5q-10 4 -17 2.5t-15 -3.5q-7 -3 -15 -7q-8 -3 -19 -3t-18.5 4t-13.5 9q-5 5 -13 12q-7 6 -18 10
q-23 9 -36 3.5t-27 -18.5q-11 -11 -18 -16q-3 -2 -6 -2l-12 8q-6 3 -11 7t-9 10q-9 9 -27 12t-33 -6q-19 -13 -27 -21.5t-24 -11.5q-9 -2 -19 1q-11 4 -22 7t-21.5 4t-18.5 -4q-15 -13 -9.5 -30t20.5 -27zM903.5 258.5q-8.5 55.5 -29.5 98t-50 74.5t-56 56q-32 27 -57 51
t-42 43q-20 22 -34 40h-253q-14 -19 -33 -41q-16 -19 -39.5 -42t-53.5 -49q-33 -29 -62 -66t-48 -81.5t-26.5 -95t2.5 -105.5q9 -50 37.5 -100t76 -90t116.5 -65.5t157 -25.5q87 0 155 22t117.5 59t79.5 87t40 106q11 69 2.5 124.5zM644 78.5q-7 -5.5 -19 -5.5h-78v-22
q0 -10 -8.5 -19.5t-22.5 -8.5q-13 0 -22 6t-10 22v22h-77q-11 0 -18.5 6.5t-6.5 15.5q0 10 7.5 16t17.5 6h77v40h-77q-11 0 -18 6.5t-7 15.5t7.5 17t17.5 8h77l1 23q-21 21 -37 39q-15 15 -27 29l-17 15q-6 7 -10.5 19t4.5 24q10 11 24.5 6t23.5 -13l16 -16l54 -54
q22 20 35 32q14 13 27 24q13 12 19 17q10 9 22.5 9t20.5 -10q15 -17 -11 -40q-7 -5 -20.5 -19t-27.5 -28q-15 -17 -34 -35v-21h73q15 0 22.5 -7.5t7.5 -16.5q0 -10 -6.5 -17t-22.5 -6l-73 -1l-1 -39h72q31 0 31 -23q1 -11 -6 -16.5z" />
    <glyph glyph-name="uniE65C" unicode="&#xe65c;" 
d="M512 895q-104 0 -198.5 -40.5t-163 -109t-109 -163.5t-40.5 -199t40.5 -198.5t109 -163t163 -109t198.5 -40.5t198.5 40.5t163 109t109 163t40.5 198.5t-40.5 199t-109 163.5t-163 109t-198.5 40.5zM362 64v586h-103v53h161v-492l212 268v31h-125v53h258z" />
    <glyph glyph-name="uniE65D" unicode="&#xe65d;" 
d="M512 892q-104 0 -198 -40t-162.5 -108.5t-108.5 -163t-40 -198t40 -198t108.5 -162.5t162.5 -108.5t198 -40.5t198 40.5t162.5 108.5t108.5 162.5t40 198t-40 198t-108.5 163t-162.5 108.5t-198 40zM562 645l-8 -381h-85l-8 381h101zM553.5 137q-16.5 -17 -39.5 -17
q-26 0 -43 17t-17 40q0 25 17 42q17 16 41 16t41 -17t17 -41q0 -23 -16.5 -40z" />
    <glyph glyph-name="uniE65E" unicode="&#xe65e;" 
d="M43 -106h213v576h-213v-576zM107 406h64v-106h-64v106zM107 257h64v-86h-64v86zM107 107h64v-85h-64v85zM299 -106h342v854h-342v-854zM598 22h-107v85h107v-85zM427 150v85h85v-85h-85zM598 278h-107v86h107v-86zM491 641h107v-85h-107v85zM491 406h-85v107h85v-107z
M342 641h106v-85h-106v85zM342 364h106v-86h-106v86zM342 107h106v-85h-106v85zM918 385v128h-21v107h-43v64h-64v-73v-98h-43v-128h-64v-491h299v491h-64zM747 300h86v-65h-86v65zM833 193h85v-86h-85v86zM747 22h86v-64h-86v64z" />
    <glyph glyph-name="uniE65F" unicode="&#xe65f;" 
d="M751 660v35v15v36h-476v-36v-15v-35h-183v-811h291h1v0h1l262 1h287v810h-183zM331 695h365v-123h-365v123zM751 61h-476v54h476v-54zM751 192h-476v54h476v-54zM751 317h-476v55h476v-55z" />
    <glyph glyph-name="uniE660" unicode="&#xe660;" 
d="M511 865q-97 0 -185.5 -37.5t-152.5 -101.5t-102 -152.5t-38 -186t38 -186t102 -152.5t152.5 -102t185.5 -38t185.5 38t152.5 102t102 152.5t38 186t-38 186t-102 152.5t-152.5 101.5t-185.5 37.5zM686 472q-14 0 -27 4l-97 -168q34 -31 34 -77q0 -45 -31.5 -76t-76 -31
t-75.5 31t-31 76q0 39 25 69l-60 54q-14 -7 -31 -7q-29 0 -49.5 20.5t-20.5 49.5t20.5 49.5t49.5 20.5t49.5 -20.5t20.5 -49.5q0 -23 -13 -41l59 -55q26 17 57 17q24 0 46 -11l95 165q-33 27 -33 69q0 37 26 63.5t63 26.5t63.5 -26.5t26.5 -63.5t-26.5 -63t-63.5 -26z" />
    <glyph glyph-name="uniE661" unicode="&#xe661;" 
d="M896 -146h-770q-26 0 -44 18.5t-18 44.5v770q0 25 18 43.5t44 18.5h770q26 0 44 -18.5t18 -43.5v-770q0 -26 -18 -44.5t-44 -18.5zM320 498l-32 4q-9 20 -15 31q-4 9 -9 1l-15 -32q-20 -1 -31 -4q-5 -1 -5 -3q-1 -2 2 -5l21 -25q-2 -20 -3 -32q-1 -6 2 -7q2 0 6 2l28 13
q17 -8 28 -14q9 -4 8 6l-3 32q12 15 20 24q6 8 -2 9zM320 324l-32 4q-9 20 -15 31q-4 9 -9 1l-15 -32q-20 -1 -31 -4q-5 -1 -5 -3q-1 -2 2 -5l21 -25q-2 -20 -3 -32q-1 -6 2 -7q2 0 6 2l28 13q17 -8 28 -13q9 -5 8 5l-3 33q12 14 20 24q6 7 -2 8zM320 151l-32 3
q-9 21 -15 32q-4 8 -9 0l-15 -32q-20 -1 -31 -4q-5 -1 -5 -3q-1 -2 2 -5l21 -24q-2 -21 -3 -33q-1 -6 2 -7q2 0 6 2l28 14q17 -9 28 -14q9 -5 8 5l-3 33q12 14 20 24q6 7 -2 9zM784 500h-360q-10 0 -17.5 -7t-7.5 -17.5t7.5 -17.5t17.5 -7h360q10 0 17.5 7t7.5 17.5
t-7.5 17.5t-17.5 7zM784 327h-360q-10 0 -17.5 -7.5t-7.5 -18t7.5 -17.5t17.5 -7h360q10 0 17.5 7t7.5 17.5t-7.5 18t-17.5 7.5zM784 153h-360q-10 0 -17.5 -7.5t-7.5 -18t7.5 -17.5t17.5 -7h360q10 0 17.5 7t7.5 17.5t-7.5 18t-17.5 7.5z" />
    <glyph glyph-name="uniE662" unicode="&#xe662;" 
d="M359 845q-45 0 -78 -20q-17 -10 -27 -24q-12 -17 -12 -37v-321q-99 0 -169 -70.5t-70 -169.5q0 -100 70.5 -170.5t170.5 -70.5q72 0 132 39l533 -39v99l109 5v797zM322 169l26 -119l-104 62l-104 -62l27 119l-92 80l121 11l48 111l48 -111l121 -11zM684 330l-227 17l5 64
l228 -17zM786 482l-395 30l6 64l394 -30zM958 120l-49 -3v583l-550 40q-27 0 -46 11q-6 4 -9 9q-2 2 -2 4t2 5q4 7 18 13q16 6 37 6h1l598 16v-684v0z" />
    <glyph glyph-name="uniE663" unicode="&#xe663;" 
d="M960 706l-80 70l-17 -8q-49 -24 -99 -34t-86 -8t-71.5 11t-51.5 16t-29 14l-14 8l-14 -8q-12 -7 -28.5 -14t-51.5 -16t-71 -11t-86.5 8t-98.5 34l-17 8l-80 -70l9 -20q53 -105 53 -176q0 -14 -12 -71q-24 -123 -24 -191q0 -201 159 -256q191 -65 239 -134l23 -35l24 35
q48 69 238 134q159 55 159 256q0 68 -24 191v0q-11 57 -11 71q0 71 52 176zM350 72zM241 392v44q79 51 100 181h70q-17 -77 -42 -128v-402h-70v333q-14 -12 -53 -26q1 0 -1 -1q-1 0 -4 -1zM431 406v195h319v-114q2 -84 -81 -81h-45v-52h163v-48h-74q11 -89 72 -147v-44
q-123 56 -135 191h-26v-219h-72v219h-25q-12 -138 -135 -191v44q63 58 72 147h-74v48h162v52h-121zM501 454h147q17 -1 25 8.5t7 29.5v60h-179v-98z" />
    <glyph glyph-name="uniE664" unicode="&#xe664;" 
d="M930 593q-59 2 -163 40.5t-181.5 76t-73.5 37.5h-5q-11 -6 -30.5 -16t-74.5 -36t-104 -46t-106.5 -37.5t-94.5 -18.5q-2 -21 -2.5 -64.5t6.5 -110t17.5 -132t31.5 -130t48 -103.5q28 -42 96 -87.5t120 -70t92 -39.5q1 0 1.5 -0.5t3.5 -1t6 1.5q234 88 312 197
q29 44 51 110.5t32.5 131.5t16 128t5 107t-3.5 63zM680 329h-135v-63h135v-52h-135v-120h-64v120h-133v52h133v63h-133v53h108l-70 126h70q55 -102 57 -111q3 10 59 111h70l-72 -126h110v-53z" />
    <glyph glyph-name="uniE665" unicode="&#xe665;" 
d="M446 -23l113 155l-113 32v-187v0zM47 340l321 -97l395 336l-306 -362l343 -106l177 680l-930 -451v0zM47 340z" />
    <glyph glyph-name="uniE666" unicode="&#xe666;" 
d="M480 748q-98 0 -186.5 -38t-153 -102.5t-102.5 -153t-38 -186.5t38 -186.5t102.5 -153t153 -102.5t186.5 -38t186.5 38t153 102.5t102.5 153t38 186.5t-38 186.5t-102.5 153t-153 102.5t-186.5 38zM768 140q0 -96 -96 -96h-384q-96 0 -96 96v256q0 96 96 96h384
q96 0 96 -96v-256zM289 141l126 81h1v1l42 -42q9 -9 22.5 -9t22.5 9q1 0 1.5 1t0.5 2l39 39l126 -81l-81 126l75 117l-184 -136l-184 136l75 -117h-1v-1z" />
    <glyph glyph-name="uniE667" unicode="&#xe667;" 
d="M1024 384q0 139 -68.5 257t-186.5 186.5t-257 68.5t-257 -68.5t-186.5 -186.5t-68.5 -257t68.5 -257t186.5 -186.5t257 -68.5t257 68.5t186.5 186.5t68.5 257zM643 636q2 1 5.5 2.5t12.5 4.5t16.5 5t16.5 1.5t15 -5.5l36 -28q9 -7 11 -23t-1 -29l-2 -14l-28 -36l-111 86z
M326 114l2 116l272 348l37 -28l-264 -338l-4 -43l41 15l264 337l36 -29l-272 -348z" />
    <glyph glyph-name="uniE668" unicode="&#xe668;" horiz-adv-x="1156" 
d="M1045 -170l-201 178q16 33 16 69q0 65 -46 111t-111 46t-111 -46t-46 -111t46 -111t111 -46q55 0 99 36l200 -178zM703 -6q-35 0 -59.5 24.5t-24.5 59.5t24.5 60t59.5 25t60 -25t25 -60t-25 -59.5t-60 -24.5zM439 -97h-178v801h624v-532q0 -19 13 -32t31 -13t31 13.5
t13 31.5v581q0 18 -13 31t-31 14q-8 0 -15 -3h-694q-25 0 -38 -22q-8 -12 -8 -27v-888q0 -28 25 -40q10 -5 21 -5h219q18 0 31 13.5t13 31.5q0 19 -13 32t-31 13zM796 571h-446q-18 0 -31 -13t-13 -32t13 -32t31 -13h446q18 0 31 13.5t13 31.5q0 19 -12.5 32t-31.5 13z
M796 394h-446q-18 0 -31 -13.5t-13 -32.5t13 -32t31 -13h446q18 0 31 13.5t13 31.5q0 19 -12.5 32.5t-31.5 13.5z" />
    <glyph glyph-name="uniE669" unicode="&#xe669;" 
d="M752 -55h-173v48q131 24 218 127.5t87 240.5q0 113 -62 206t-163 137q-71 31 -149 31t-149 -31q-101 -44 -163 -137t-62 -206q0 -137 86.5 -240.5t218.5 -127.5v-48h-173q-15 0 -23.5 -9t-10 -15.5t-1.5 -9.5v-69h554v69q0 14 -10.5 24t-24.5 10zM635 676
q-53 -49 -125 -49t-125 49q60 24 124.5 24t125.5 -24zM326 361q0 76 54 130t130 54t130 -54t54 -130t-54 -130t-130 -54t-130 54t-54 130zM607 360.5q0 40.5 -28.5 69t-68.5 28.5q-27 0 -50 -14q7 2 14 2q20 0 34.5 -14.5t14.5 -35t-14.5 -35t-34.5 -14.5t-34.5 14.5
t-14.5 35.5q0 6 2 14q-14 -24 -14 -50q0 -41 28.5 -69.5t68.5 -28.5t68.5 28.5t28.5 69z" />
    <glyph glyph-name="uniE66A" unicode="&#xe66a;" 
d="M512 812q-105 0 -199.5 -40t-163 -108t-109 -162t-40.5 -198.5t40.5 -200t109 -164.5t163 -110t199.5 -41t199.5 41t163 110t109 164.5t40.5 200t-40.5 198.5t-109 162t-163 108t-199.5 40zM511.5 -135q-118.5 0 -219 59t-158 160t-57.5 220t57.5 218.5t157.5 156.5
t219 57t219 -57t158 -156.5t58 -218.5t-58 -220t-158 -160t-218.5 -59zM463 487q-7 6 -18 6t-18 -6v-375q7 -6 18 -6t18 6l213 173q7 6 7 15t-7 15z" />
    <glyph glyph-name="uniE66B" unicode="&#xe66b;" 
d="M548 689q-23 11 -43 -6l-227 -189l-181 1q-16 0 -28 -11.5t-12 -27.5v-316q0 -17 11.5 -28.5t27.5 -11.5h183l226 -188q11 -9 26 -9q9 0 16 3q23 11 23 36v711q0 25 -22 36zM491 26l-172 144q-11 9 -25 9h-158v237l156 -1q15 0 26 9l173 145v-543zM701 491q-15 7 -30 1.5
t-22 -20t-2 -30t20 -22.5q3 -2 7.5 -4.5t15 -13t18 -22.5t14 -33.5t6.5 -46.5q0 -26 -6 -48.5t-13 -35.5t-17 -23.5t-14 -13t-7 -4.5q-15 -7 -20 -23t2 -30q11 -22 36 -22q9 0 17 4q6 3 13 7.5t24 21t30 37t23.5 55.5t10.5 75q0 39 -11 73t-24.5 54t-31.5 36t-26 21t-13 7z
M824 607q-14 9 -30 5.5t-24.5 -17t-5.5 -29.5t17 -25q5 -3 13 -9.5t25.5 -28t31 -47t24.5 -68t11 -91t-10.5 -91t-23.5 -68t-30 -47t-24.5 -28t-12.5 -9.5q-13 -9 -16.5 -25t5.5 -30q12 -17 33 -17q12 0 22 6q7 5 17 13t33 35.5t40.5 60t31.5 86.5t14 114.5t-14.5 115
t-33 87t-42 59.5t-34 35.5t-17.5 12.5zM824 607z" />
    <glyph glyph-name="uniE66C" unicode="&#xe66c;" 
d="M834 683h-35q-44 0 -129 35q-87 34 -138 72l-22 15l-21 -15q-50 -37 -138 -72q-85 -35 -129 -35h-35v-354q0 -50 30.5 -105.5t74 -100t90.5 -81.5t82.5 -57.5t45.5 -20.5q11 0 46.5 20.5t82 57.5t90.5 81.5t74.5 100t30.5 105.5v354zM472 229l-151 127l47 54l97 -82
l183 209l55 -46z" />
    <glyph glyph-name="uniE66D" unicode="&#xe66d;" 
d="M766 498h-71q0 85 -57 142.5t-140.5 57.5t-140.5 -57.5t-57 -142.5h-71q0 68 35.5 130.5t98.5 101.5t134.5 39t134 -39t98.5 -101.5t36 -130.5zM808 381q0 30 -21 50.5t-50 20.5h-473q-29 0 -50 -20.5t-21 -50.5v-336q0 -29 21 -50t50 -21h473q29 0 50 21t21 50v336z
M558 119q0 -22 -16 -38t-38 -16h-7q-22 0 -37.5 16t-15.5 38v144q0 22 15.5 37.5t37.5 15.5h7q22 0 38 -15.5t16 -37.5v-144z" />
    <glyph glyph-name="uniE66E" unicode="&#xe66e;" 
d="M512 224q72 0 128 57t63 146q8 96 -48 170.5t-143 74.5t-143 -74.5t-48 -170.5q7 -89 63 -146t128 -57zM510 159q-104 0 -192 -25t-139 -68.5t-51 -94.5q0 -26 28 -38.5t100 -20.5q74 -8 256 -8q190 0 257 8q72 9 99.5 21t27.5 38q0 51 -52 94.5t-141 68.5t-193 25z" />
    <glyph glyph-name="uniE66F" unicode="&#xe66f;" 
d="M775 646q46 -33 82 -74.5t61.5 -89.5t39 -102t13.5 -109q0 -95 -36.5 -178.5t-98.5 -145.5t-145.5 -98.5t-178.5 -36.5q-94 0 -177.5 36.5t-146 98.5t-98.5 145.5t-36 178.5q0 54 13 106.5t36.5 99.5t58 88t77.5 74q23 16 49 12t42.5 -25.5t12.5 -48t-26 -43.5
q-64 -47 -98.5 -115.5t-34.5 -147.5q0 -68 25.5 -127.5t70 -104t104.5 -71t127.5 -26.5t127.5 26.5t104.5 71t71 104t26.5 127.5q0 80 -37 151t-104 117q-22 16 -27 42.5t11 48.5q15 22 41.5 26.5t49.5 -10.5zM512 268q-27 0 -46 19t-19 45v390q0 26 19 45.5t46 19.5
t46 -19.5t19 -45.5v-390q0 -26 -19 -45t-46 -19z" />
  </font>
</defs>
</svg>
